<?xml version="1.0" encoding="UTF-8" standalone="no"?>
<!-- Created with Inkscape (http://www.inkscape.org/) -->

<svg
   xmlns:dc="http://purl.org/dc/elements/1.1/"
   xmlns:cc="http://creativecommons.org/ns#"
   xmlns:rdf="http://www.w3.org/1999/02/22-rdf-syntax-ns#"
   xmlns:svg="http://www.w3.org/2000/svg"
   xmlns="http://www.w3.org/2000/svg"
   xmlns:xlink="http://www.w3.org/1999/xlink"
   xmlns:sodipodi="http://sodipodi.sourceforge.net/DTD/sodipodi-0.dtd"
   xmlns:inkscape="http://www.inkscape.org/namespaces/inkscape"
   width="6.3499999mm"
   height="6.3499999mm"
   viewBox="0 0 6.3499999 6.3499999"
   version="1.1"
   id="svg8"
   inkscape:version="0.92.3 (2405546, 2018-03-11)"
   sodipodi:docname="jsondaora.svg"
   inkscape:export-filename="/home/diogo/Desenvolvimento/jsondaora/docs/favicon.png"
   inkscape:export-xdpi="256"
   inkscape:export-ydpi="256">
  <defs
     id="defs2">
    <linearGradient
       inkscape:collect="always"
       xlink:href="#linearGradient11301-6"
       id="linearGradient11307-3"
       x1="89.136749"
       y1="111.92053"
       x2="147.77737"
       y2="168.1012"
       gradientUnits="userSpaceOnUse"
       gradientTransform="matrix(0.08193995,0,0,0.10256328,36.272385,46.915791)" />
    <linearGradient
       inkscape:collect="always"
       id="linearGradient11301-6">
      <stop
         style="stop-color:#ff70b2;stop-opacity:1"
         offset="0"
         id="stop11303-7" />
      <stop
         style="stop-color:#e91e63;stop-opacity:1"
         offset="1"
         id="stop11305-5" />
    </linearGradient>
    <linearGradient
       inkscape:collect="always"
       xlink:href="#linearGradient9515-5"
       id="linearGradient9521-3"
       x1="55.549179"
       y1="77.070274"
       x2="110.14919"
       y2="131.85291"
       gradientUnits="userSpaceOnUse"
       gradientTransform="matrix(0.08193995,0,0,0.10256328,36.46488,47.284778)" />
    <linearGradient
       inkscape:collect="always"
       id="linearGradient9515-5">
      <stop
         style="stop-color:#ab47bc;stop-opacity:1"
         offset="0"
         id="stop9517-6" />
      <stop
         style="stop-color:#c490be;stop-opacity:1"
         offset="1"
         id="stop9519-2" />
    </linearGradient>
  </defs>
  <sodipodi:namedview
     id="base"
     pagecolor="#ffffff"
     bordercolor="#666666"
     borderopacity="1.0"
     inkscape:pageopacity="0.0"
     inkscape:pageshadow="2"
     inkscape:zoom="11.2"
     inkscape:cx="-6.2814354"
     inkscape:cy="15.018209"
     inkscape:document-units="mm"
     inkscape:current-layer="g4614"
     showgrid="false"
     inkscape:window-width="1315"
     inkscape:window-height="713"
     inkscape:window-x="0"
     inkscape:window-y="27"
     inkscape:window-maximized="1" />
  <metadata
     id="metadata5">
    <rdf:RDF>
      <cc:Work
         rdf:about="">
        <dc:format>image/svg+xml</dc:format>
        <dc:type
           rdf:resource="http://purl.org/dc/dcmitype/StillImage" />
        <dc:title></dc:title>
      </cc:Work>
    </rdf:RDF>
  </metadata>
  <g
     inkscape:label="Layer 1"
     inkscape:groupmode="layer"
     id="layer1"
     transform="translate(0,-290.65)">
    <g
       id="g4614"
       transform="matrix(0.39693805,0,0,0.39693805,-15.971014,270.14634)">
      <g
         aria-label="{ }"
         transform="matrix(0.82863619,0,0,0.92585339,-0.05271122,13.844131)"
         style="font-style:normal;font-weight:normal;font-size:14.00207996px;line-height:1.25;font-family:sans-serif;letter-spacing:0px;word-spacing:0px;fill:#ab47bc;fill-opacity:1;stroke:none;stroke-width:0.350052"
         id="text963">
        <path
           d="m 54.290301,54.954165 v 0.984521 H 53.86641 q -1.702401,0 -2.283542,-0.505934 -0.574304,-0.505935 -0.574304,-2.016902 v -1.634031 q 0,-1.03238 -0.369196,-1.428924 -0.369195,-0.396543 -1.340042,-0.396543 h -0.417055 v -0.977684 h 0.417055 q 0.977684,0 1.340042,-0.389707 0.369196,-0.396543 0.369196,-1.415249 v -1.640869 q 0,-1.510966 0.574304,-2.010064 0.581141,-0.505934 2.283542,-0.505934 h 0.423891 v 0.977684 h -0.464912 q -0.964011,0 -1.258,0.300826 -0.293989,0.300826 -0.293989,1.264836 v 1.695565 q 0,1.073401 -0.3145,1.558825 -0.307663,0.485424 -1.059727,0.656347 0.758901,0.184598 1.066564,0.670022 0.307663,0.485424 0.307663,1.551988 v 1.695565 q 0,0.96401 0.293989,1.264836 0.293989,0.300826 1.258,0.300826 z"
           style="fill:#ab47bc;fill-opacity:1;stroke-width:0.350052"
           id="path969"
           inkscape:connector-curvature="0" />
        <path
           d="m 62.255353,54.954165 h 0.478586 q 0.957174,0 1.244326,-0.293989 0.293989,-0.293989 0.293989,-1.271673 v -1.695565 q 0,-1.066564 0.307663,-1.551988 0.307663,-0.485424 1.066564,-0.670022 -0.758901,-0.170923 -1.066564,-0.656347 -0.307663,-0.485424 -0.307663,-1.558825 v -1.695565 q 0,-0.970847 -0.293989,-1.264836 -0.287152,-0.300826 -1.244326,-0.300826 h -0.478586 v -0.977684 h 0.430728 q 1.702401,0 2.269868,0.505934 0.574304,0.499098 0.574304,2.010064 v 1.640869 q 0,1.018706 0.369196,1.415249 0.369195,0.389707 1.340042,0.389707 h 0.423892 v 0.977684 h -0.423892 q -0.970847,0 -1.340042,0.396543 -0.369196,0.396544 -0.369196,1.428924 v 1.634031 q 0,1.510967 -0.574304,2.016902 -0.567467,0.505934 -2.269868,0.505934 h -0.430728 z"
           style="fill:#ab47bc;fill-opacity:1;stroke-width:0.350052"
           id="path971"
           inkscape:connector-curvature="0" />
      </g>
      <g
         transform="translate(3.6602236,-2.1535785e-6)"
         id="g1562">
        <path
           inkscape:connector-curvature="0"
           id="path4670-9"
           d="m 47.125695,56.898923 v 1.125345 c 0,0 0.01387,0.446342 -0.159074,0.901161 -0.172936,0.45482 -0.567022,0.92476 -1.274947,0.92476 h -2.176366 c 0,0 -0.27088,-0.0022 -0.53496,0.154863 -0.264078,0.157056 -0.512571,0.4306 -0.512571,1.109122 v 2.499947 l -0.0024,0.0177 c 0,0 -0.04228,0.267392 0.168501,0.579635 0.21078,0.312239 0.705399,0.676976 1.877071,0.676976 1.123739,0 1.611985,-0.307633 1.816976,-0.561936 0.102492,-0.12715 0.141903,-0.244147 0.157896,-0.327426 0.01595,-0.08328 0.01061,-0.112089 0.01061,-0.112089 l -0.0024,-0.01622 -0.0035,-1.092898 h -2.191684 v -0.817092 h 3.243928 l 0.0082,0.0029 c 0,0 0.30471,0.04303 0.620977,-0.224184 0.316267,-0.267213 0.658683,-0.851375 0.658683,-2.25659 0,-1.410965 -0.305303,-2.034683 -0.579736,-2.32296 -0.274332,-0.288237 -0.52072,-0.261017 -0.52072,-0.261017 h -0.0059 z m -1.405741,6.13409 c 0.310224,0 0.565596,0.319645 0.565596,0.70795 0,0.388305 -0.255372,0.704999 -0.565596,0.704999 -0.310225,0 -0.565597,-0.316694 -0.565597,-0.704999 0,-0.388305 0.255372,-0.70795 0.565597,-0.70795 z"
           style="color:#000000;display:inline;overflow:visible;visibility:visible;opacity:1;fill:url(#linearGradient11307-3);fill-opacity:1;fill-rule:nonzero;stroke:none;stroke-width:0.38265893;stroke-linecap:butt;stroke-linejoin:miter;stroke-miterlimit:4;stroke-dasharray:none;stroke-dashoffset:0;stroke-opacity:1;marker:none;marker-start:none;marker-mid:none;marker-end:none" />
        <path
           inkscape:connector-curvature="0"
           id="path4665-1"
           d="m 44.638251,54.418149 c -1.123738,0 -1.613164,0.307633 -1.818155,0.561935 -0.102497,0.127151 -0.139546,0.242673 -0.155539,0.325952 -0.01595,0.08327 -0.01061,0.115043 -0.01061,0.115043 l 0.0024,0.01475 0.0024,1.092898 h 2.191684 v 0.817091 h -3.243928 l -0.0094,-0.0029 c 0,-10e-7 -0.303532,-0.04303 -0.619799,0.224185 -0.316268,0.267212 -0.659862,0.851376 -0.659862,2.25659 0,1.410967 0.307661,2.033208 0.582092,2.321485 0.274432,0.288279 0.519642,0.262532 0.519642,0.262532 l 0.0047,-0.0015 h 0.600945 v -1.12389 c 0,0 -0.01504,-0.447816 0.157896,-0.902635 0.172936,-0.45482 0.567022,-0.924759 1.274947,-0.924759 h 2.175188 0.0024 c 0,0 0.269701,0.0022 0.53378,-0.154865 0.26408,-0.157056 0.512572,-0.430605 0.512572,-1.109121 v -2.499948 l 0.0035,-0.01622 c 0,0 0.0411,-0.267393 -0.16968,-0.579634 -0.210781,-0.312241 -0.705398,-0.676977 -1.877071,-0.676977 z m -1.207782,0.440993 c 0.310224,0 0.564417,0.319646 0.564417,0.70795 0,0.388305 -0.254193,0.70795 -0.564417,0.70795 -0.310224,0 -0.565596,-0.319645 -0.565596,-0.70795 0,-0.388304 0.255372,-0.70795 0.565596,-0.70795 z"
           style="color:#000000;display:inline;overflow:visible;visibility:visible;opacity:1;fill:url(#linearGradient9521-3);fill-opacity:1;fill-rule:nonzero;stroke:none;stroke-width:0.38265893;stroke-linecap:butt;stroke-linejoin:miter;stroke-miterlimit:4;stroke-dasharray:none;stroke-dashoffset:0;stroke-opacity:1;marker:none;marker-start:none;marker-mid:none;marker-end:none" />
      </g>
    </g>
  </g>
  <style
     id="style221"
     type="text/css">
	.st0{fill:#333333;}
</style>
</svg>
